<?xml version="1.0" encoding="utf-8"?>
<!-- Generator: Adobe Illustrator 24.3.0, SVG Export Plug-In . SVG Version: 6.00 Build 0)  -->
<svg version="1.1" id="Layer_1" xmlns="http://www.w3.org/2000/svg" xmlns:xlink="http://www.w3.org/1999/xlink" x="0px" y="0px"
	 viewBox="0 0 16 16" style="enable-background:new 0 0 16 16;" xml:space="preserve">
<g>
	<path d="M4.5,9C5.3,9,6,8.3,6,7.5S5.3,6.1,4.5,6.1S3,6.7,3,7.5S3.7,9,4.5,9z"/>
	<path d="M14,1.3H4c-1.1,0-2,0.8-2,1.9C0.9,3.2,0,4,0,5.1v7.7c0,1,0.9,1.9,2,1.9h10c1.1,0,2-0.8,2-1.9c1.1,0,2-0.8,2-1.9V3.2
		C16,2.2,15.1,1.3,14,1.3z M13,12.8c0,0.6-0.5,0.9-1,0.9H2c-0.2,0-0.3,0-0.4-0.1L4,11.5l3,1.9l3.9-3.8l2.1,2.2V12.8z M13,10.3
		l-1.8-1.9c-0.2-0.1-0.4,0-0.6,0.1l-3.7,3.6l-2.7-1.7c-0.2-0.1-0.4-0.1-0.6,0.1L1,12.8V5.1c0-0.6,0.4-1,1-1h10c0.6,0,1,0.5,1,1V10.3
		z M15,10.8c0,0.6-0.4,1-1,1V5.1c0-1-0.9-1.9-2-1.9H3c0-0.6,0.4-1,1-1h10c0.6,0,1,0.4,1,1V10.8z"/>
</g>
</svg>
