<?xml version="1.0" encoding="utf-8"?>
<!-- Generator: Adobe Illustrator 24.3.0, SVG Export Plug-In . SVG Version: 6.00 Build 0)  -->
<svg version="1.1" id="Layer_1" xmlns="http://www.w3.org/2000/svg" xmlns:xlink="http://www.w3.org/1999/xlink" x="0px" y="0px"
	 viewBox="0 0 16 16" style="enable-background:new 0 0 16 16;" xml:space="preserve">
<g>
	<path d="M4.5,9C5.3,9,6,8.3,6,7.5S5.3,6.1,4.5,6.1S3,6.7,3,7.5S3.7,9,4.5,9z"/>
	<path d="M14,12.8c0,1.1-0.9,1.9-2,1.9H2c-1.1,0-2-0.9-2-1.9V5.1C0,4,0.9,3.2,2,3.2c0-1.1,0.9-1.9,2-1.9h10c1.1,0,2,0.9,2,1.9v7.7
		C16,12,15.1,12.8,14,12.8z M14,2.2H4c-0.6,0-1,0.4-1,1h9c1.1,0,2,0.9,2,1.9v6.7c0.6,0,1-0.4,1-1V3.2C15,2.6,14.6,2.2,14,2.2z
		 M2,4.1c-0.6,0-1,0.4-1,1v7.7l2.6-2.3c0.2-0.2,0.4-0.2,0.6-0.1l2.7,1.7l3.7-3.6c0.2-0.1,0.4-0.2,0.6-0.1l1.8,1.9V5.1
		c0-0.5-0.4-1-1-1C12,4.1,2,4.1,2,4.1z"/>
</g>
</svg>
