<svg xmlns="http://www.w3.org/2000/svg" xmlns:xlink="http://www.w3.org/1999/xlink" id="Layer_1" x="0" y="0" version="1.1" viewBox="0 0 16 16" xml:space="preserve" style="enable-background:new 0 0 16 16"><g><ellipse cx="4.5" cy="4.9" rx="1.5" ry="1.4"/><path d="M14,1.8H2c-1.1,0-2,0.9-2,1.8v9c0,1.1,0.9,1.8,2,1.8h12c1.1,0,2-0.9,2-1.8v-9C16,2.4,15.1,1.8,14,1.8z M15,9.3l-3.8-1.8 c-0.2-0.1-0.4-0.1-0.6,0.1L6.9,11L4.3,9.4C4.1,9.3,3.8,9.3,3.6,9.5L1,11.6V3.5c0-0.5,0.4-1,1-1h12c0.6,0,1,0.4,1,1V9.3z"/></g></svg>