<?xml version="1.0" encoding="utf-8"?>
<!-- Generator: Adobe Illustrator 24.3.0, SVG Export Plug-In . SVG Version: 6.00 Build 0)  -->
<svg version="1.1" id="Layer_1" xmlns="http://www.w3.org/2000/svg" xmlns:xlink="http://www.w3.org/1999/xlink" x="0px" y="0px"
	 viewBox="0 0 16 16" style="enable-background:new 0 0 16 16;" xml:space="preserve">
<style type="text/css">
	.st0{fill:none;}
</style>
<g>
	<ellipse cx="4.5" cy="4.9" rx="1.5" ry="1.4"/>
	<path d="M14,1.8H2c-1.1,0-2,0.9-2,1.8v9c0,1.1,0.9,1.8,2,1.8h12c1.1,0,2-0.9,2-1.8v-9C16,2.4,15.1,1.8,14,1.8z M15,12.6
		c0,0.3-0.4,0.8-1,0.8H2c-0.4,0-0.8-0.2-1-0.6l3-2.4l3,1.8l4-3.6l4,1.8V12.6z M15,9.4l-3.8-1.8c-0.2-0.1-0.4-0.1-0.6,0.1L6.9,11
		L4.3,9.5C4.1,9.4,3.8,9.4,3.6,9.6l-2.6,2V3.7c0-0.5,0.4-1,1-1h12c0.6,0,1,0.4,1,1V9.4z"/>
</g>
<line class="st0" x1="18.2" y1="7.4" x2="18.2" y2="8.4"/>
</svg>
