<?xml version="1.0" encoding="utf-8"?>
<!-- Generator: Adobe Illustrator 24.3.0, SVG Export Plug-In . SVG Version: 6.00 Build 0)  -->
<svg version="1.1" id="Layer_1" xmlns="http://www.w3.org/2000/svg" xmlns:xlink="http://www.w3.org/1999/xlink" x="0px" y="0px"
	 viewBox="0 0 10.1 10.1" style="enable-background:new 0 0 10.1 10.1;" xml:space="preserve">
<g>
	<path d="M1.5,0.2H0.6c-0.3,0-0.5,0.2-0.5,0.5v0.9C0.1,1.9,0.3,2,0.6,2h0.9C1.8,2,2,1.9,2,1.6V0.7C2,0.4,1.8,0.2,1.5,0.2z M1.5,1.6
		H0.6V0.7h0.9V1.6z"/>
	<path d="M1.5,4.1H0.6c-0.3,0-0.5,0.2-0.5,0.5v0.9C0.1,5.8,0.3,6,0.6,6h0.9C1.8,6,2,5.8,2,5.5V4.6C2,4.3,1.8,4.1,1.5,4.1z M1.5,5.5
		H0.6V4.6h0.9V5.5z"/>
	<path d="M1.5,8.1H0.6c-0.3,0-0.5,0.2-0.5,0.5v0.9c0,0.3,0.2,0.5,0.5,0.5h0.9C1.8,9.9,2,9.7,2,9.4V8.5C2,8.2,1.8,8.1,1.5,8.1z
		 M1.5,9.4H0.6V8.5h0.9V9.4z"/>
	<path d="M2.6,1.6h7c0.2,0,0.4-0.2,0.4-0.5c0-0.3-0.2-0.5-0.4-0.5h-7c-0.2,0-0.4,0.2-0.4,0.5C2.2,1.3,2.3,1.6,2.6,1.6z"/>
	<path d="M9.6,8.4h-7c-0.3,0-0.4,0.2-0.4,0.5c0,0.3,0.2,0.5,0.4,0.5h7c0.2,0,0.4-0.2,0.4-0.5C10,8.6,9.8,8.4,9.6,8.4z"/>
	<path d="M9.6,4.5h-7C2.3,4.5,2.2,4.7,2.2,5c0,0.3,0.2,0.5,0.4,0.5h7C9.8,5.5,10,5.3,10,5C10,4.7,9.8,4.5,9.6,4.5z"/>
</g>
</svg>
