<svg id="Layer_1" data-name="Layer 1" xmlns="http://www.w3.org/2000/svg" viewBox="0 0 500 500"><defs><style>.cls-1{fill:#c80055;}.cls-2{fill:#fff;}</style></defs><rect class="cls-1" width="500" height="500"/><path class="cls-2" d="M375.57,250V155.46L250,39.33v85.09H155.47L39.31,250h85.12v94.52L250,460.67V375.55h94.54L460.69,250ZM266.19,76.37l84.13,77.8L282,205.63a54.31,54.31,0,0,0-15.78-7.89ZM76.36,233.8l77.82-84.13L205.64,218a54.23,54.23,0,0,0-7.91,15.8ZM233.79,423.63l-84.11-77.82L218,294.35a53.61,53.61,0,0,0,15.8,7.91ZM285.12,266.2c-.33.71-.69,1.43-1.05,2.12A38.79,38.79,0,0,1,250,288.67a38.14,38.14,0,0,1-16.2-3.56c-.72-.31-1.43-.67-2.12-1.05A38.56,38.56,0,0,1,211.32,250a38.42,38.42,0,0,1,3.54-16.2c.33-.71.69-1.43,1.07-2.12a38.65,38.65,0,0,1,50.26-16.81c.71.31,1.43.67,2.12,1A38.75,38.75,0,0,1,288.68,250,38.14,38.14,0,0,1,285.12,266.2ZM294.36,282a54.31,54.31,0,0,0,7.89-15.78H423.64l-77.82,84.13Z"/></svg>