<?xml version="1.0" encoding="utf-8"?>
<!-- Generator: Adobe Illustrator 24.3.0, SVG Export Plug-In . SVG Version: 6.00 Build 0)  -->
<svg version="1.1" id="Layer_1" xmlns="http://www.w3.org/2000/svg" xmlns:xlink="http://www.w3.org/1999/xlink" x="0px" y="0px"
	 viewBox="0 0 200 200" style="enable-background:new 0 0 200 200;" xml:space="preserve">
<style type="text/css">
	.st0{fill:#C80055;}
	.st1{fill:#FFFFFF;}
</style>
<g>
	<g>
		<g>
			<path class="st0" d="M10,198.5c-4.7,0-8.5-3.8-8.5-8.5V10c0-4.7,3.8-8.5,8.5-8.5h180c4.7,0,8.5,3.8,8.5,8.5v180
				c0,4.7-3.8,8.5-8.5,8.5H10z"/>
			<path class="st1" d="M190,2.5c4.1,0,7.5,3.4,7.5,7.5v180c0,4.1-3.4,7.5-7.5,7.5H10c-4.1,0-7.5-3.4-7.5-7.5V10
				c0-4.1,3.4-7.5,7.5-7.5H190 M190,0.5H10c-5.2,0-9.5,4.3-9.5,9.5v180c0,5.2,4.3,9.5,9.5,9.5h180c5.2,0,9.5-4.3,9.5-9.5V10
				C199.5,4.8,195.2,0.5,190,0.5L190,0.5z"/>
		</g>
		<path class="st1" d="M190,1c5,0,9,4,9,9v180c0,5-4,9-9,9H10c-5,0-9-4-9-9V10c0-5,4-9,9-9H190 M190,0H10C4.5,0,0,4.5,0,10v180
			c0,5.5,4.5,10,10,10h180c5.5,0,10-4.5,10-10V10C200,4.5,195.5,0,190,0L190,0z"/>
	</g>
	<path class="st1" d="M150.2,100V62.2L100,15.7v34H62.2L15.7,100h34v37.8l50.2,46.5v-34h37.8l46.5-50.2h-34V100z M106.5,30.5
		l33.7,31.1l-27.3,20.6c-1.9-1.4-4.1-2.5-6.3-3.2L106.5,30.5z M30.5,93.5l31.1-33.7l20.6,27.3c-1.4,1.9-2.5,4.1-3.2,6.3L30.5,93.5
		L30.5,93.5z M93.5,169.5l-33.6-31.1l27.3-20.6c1.9,1.4,4.1,2.5,6.3,3.2V169.5z M114,106.5c-0.1,0.3-0.3,0.6-0.4,0.8
		c-2.7,5-7.9,8.1-13.6,8.1c-2.2,0-4.5-0.5-6.5-1.4c-0.3-0.1-0.6-0.3-0.8-0.4c-5-2.7-8.2-7.9-8.1-13.6c0-2.2,0.5-4.4,1.4-6.5
		c0.1-0.3,0.3-0.6,0.4-0.8c3.9-7.2,12.7-10.2,20.1-6.7c0.3,0.1,0.6,0.3,0.8,0.4c5,2.7,8.2,7.9,8.1,13.7
		C115.5,102.2,115,104.5,114,106.5z M117.7,112.8c1.4-1.9,2.5-4.1,3.2-6.3h48.6l-31.1,33.7L117.7,112.8z"/>
</g>
</svg>
