<?xml version="1.0" encoding="utf-8"?>
<!-- Generator: Adobe Illustrator 24.3.0, SVG Export Plug-In . SVG Version: 6.00 Build 0)  -->
<svg version="1.1" id="Layer_1" xmlns="http://www.w3.org/2000/svg" xmlns:xlink="http://www.w3.org/1999/xlink" x="0px" y="0px"
	 viewBox="0 0 16 16" style="enable-background:new 0 0 16 16;" xml:space="preserve">
<style type="text/css">
	.st0{fill-rule:evenodd;clip-rule:evenodd;}
</style>
<path d="M5.5,6C5.8,6,6,6.2,6,6.5v6C6,12.8,5.8,13,5.5,13S5,12.8,5,12.5v-6C5,6.2,5.2,6,5.5,6z M8,6c0.3,0,0.5,0.2,0.5,0.5v6
	C8.5,12.8,8.3,13,8,13c-0.3,0-0.5-0.2-0.5-0.5v-6C7.5,6.2,7.7,6,8,6z M11,6.5C11,6.2,10.8,6,10.5,6S10,6.2,10,6.5v6
	c0,0.3,0.2,0.5,0.5,0.5s0.5-0.2,0.5-0.5V6.5z"/>
<path class="st0" d="M14.5,3.5c0,0.6-0.4,1-1,1H13v9c0,1.1-0.9,2-2,2H5c-1.1,0-2-0.9-2-2v-9H2.5c-0.6,0-1-0.4-1-1v-1
	c0-0.6,0.4-1,1-1H6c0-0.6,0.4-1,1-1h2c0.6,0,1,0.4,1,1h3.5c0.6,0,1,0.4,1,1V3.5z M4.1,4.5L4,4.6v8.9c0,0.6,0.4,1,1,1h6
	c0.6,0,1-0.4,1-1V4.6l-0.1-0.1H4.1z M2.5,3.5v-1h11v1H2.5z"/>
</svg>
