<svg xmlns="http://www.w3.org/2000/svg" xmlns:xlink="http://www.w3.org/1999/xlink" id="Layer_1" x="0" y="0" version="1.1" viewBox="0 0 16 16" xml:space="preserve" style="enable-background:new 0 0 16 16"><style type="text/css">.st0{fill-rule:evenodd;clip-rule:evenodd}</style><path d="M15.7,6.5h-1.6c-0.3-1.5-1-2.8-2.2-3.8C9.2,0.5,5.3,0.9,3,3.6c0,0,0,0,0,0C2.8,3.8,2.9,4.1,3.1,4.3	c0.2,0.2,0.6,0.1,0.7-0.1c1-1.2,2.4-1.9,4-1.9c2.5,0,4.6,1.8,5.1,4.2h-1.4c-0.1,0-0.1,0-0.2,0.1c-0.1,0.1-0.1,0.3,0,0.4l2.1,2.5	c0,0,0,0,0,0c0.1,0.1,0.3,0.1,0.4,0L15.9,7c0,0,0.1-0.1,0.1-0.2C16,6.6,15.9,6.5,15.7,6.5z" class="st0"/><path d="M12.8,11.5c-0.2-0.2-0.6-0.1-0.7,0.1c-0.8,0.9-1.8,1.6-3,1.8c-2.8,0.6-5.6-1.2-6.2-4.1h1.4	c0.1,0,0.3-0.1,0.3-0.3c0-0.1,0-0.1-0.1-0.2L2.5,6.4c-0.1-0.1-0.3-0.1-0.4,0c0,0,0,0,0,0L0.1,8.8C0,9,0,9.1,0.1,9.2	c0,0,0.1,0.1,0.2,0.1h1.6c0.3,1.5,1,2.8,2.2,3.8c2.7,2.2,6.6,1.8,8.8-0.8c0,0,0,0,0,0C13.1,12,13.1,11.6,12.8,11.5z" class="st0"/></svg>