<?xml version="1.0" encoding="utf-8"?>
<!-- Generator: Adobe Illustrator 24.3.0, SVG Export Plug-In . SVG Version: 6.00 Build 0)  -->
<svg version="1.1" id="Layer_1" xmlns="http://www.w3.org/2000/svg" xmlns:xlink="http://www.w3.org/1999/xlink" x="0px" y="0px"
	 viewBox="0 0 16 16" style="enable-background:new 0 0 16 16;" xml:space="preserve">
<path d="M7,5.1C6.7,4.9,6.4,5,6.3,5.2C6.2,5.3,6.2,5.4,6.2,5.5v5c0,0.3,0.2,0.5,0.5,0.5c0.1,0,0.2,0,0.3-0.1l3.5-2.5
	c0.2-0.2,0.3-0.5,0.1-0.7c0,0-0.1-0.1-0.1-0.1C10.5,7.6,7,5.1,7,5.1z"/>
<path d="M0,4c0-1.1,0.9-2,2-2h12c1.1,0,2,0.9,2,2v8c0,1.1-0.9,2-2,2H2c-1.1,0-2-0.9-2-2V4z M15,4c0-0.6-0.4-1-1-1H2C1.4,3,1,3.4,1,4
	v8c0,0.6,0.4,1,1,1h12c0.6,0,1-0.4,1-1V4z"/>
</svg>
