<?xml version="1.0" encoding="utf-8"?>
<!-- Generator: Adobe Illustrator 24.3.0, SVG Export Plug-In . SVG Version: 6.00 Build 0)  -->
<svg version="1.1" id="Layer_1" xmlns="http://www.w3.org/2000/svg" xmlns:xlink="http://www.w3.org/1999/xlink" x="0px" y="0px"
	 viewBox="0 0 16 16" style="enable-background:new 0 0 16 16;" xml:space="preserve">
<path d="M15,12c0,0.6-0.4,1-1,1H2c-0.6,0-1-0.4-1-1V6c0-0.6,0.4-1,1-1h1.2C4,5,4.7,4.7,5.3,4.1l0.8-0.8C6.3,3.1,6.6,3,6.8,3h2.3
	c0.3,0,0.5,0.1,0.7,0.3l0.8,0.8C11.3,4.7,12,5,12.8,5H14c0.6,0,1,0.4,1,1V12z M2,4C0.9,4,0,4.9,0,6v6c0,1.1,0.9,2,2,2h12
	c1.1,0,2-0.9,2-2V6c0-1.1-0.9-2-2-2h-1.2c-0.5,0-1-0.2-1.4-0.6l-0.8-0.8C10.2,2.2,9.7,2,9.2,2H6.8c-0.5,0-1,0.2-1.4,0.6L4.6,3.4
	C4.2,3.8,3.7,4,3.2,4H2z"/>
<path d="M8,11.2c-1.4,0-2.5-1.1-2.5-2.5S6.6,6.2,8,6.2s2.5,1.1,2.5,2.5S9.4,11.2,8,11.2z M8,12.2c1.9,0,3.5-1.6,3.5-3.5
	S9.9,5.2,8,5.2S4.5,6.7,4.5,8.7S6.1,12.2,8,12.2z M3,6.7C3,7,2.8,7.2,2.5,7.2S2,7,2,6.7s0.2-0.5,0.5-0.5S3,6.4,3,6.7z"/>
</svg>
