<?xml version="1.0" encoding="utf-8"?>
<!-- Generator: Adobe Illustrator 24.3.0, SVG Export Plug-In . SVG Version: 6.00 Build 0)  -->
<svg version="1.1" id="Layer_1" xmlns="http://www.w3.org/2000/svg" xmlns:xlink="http://www.w3.org/1999/xlink" x="0px" y="0px"
	 viewBox="0 0 16 16" style="enable-background:new 0 0 16 16;" xml:space="preserve">
<path d="M14,4h-1.2c-0.5,0-1-0.2-1.4-0.6l-0.8-0.8C10.2,2.2,9.7,2,9.2,2H6.8c-0.5,0-1,0.2-1.4,0.6L4.6,3.4C4.2,3.8,3.7,4,3.2,4H2
	C0.9,4,0,4.9,0,6v6c0,1.1,0.9,2,2,2h12c1.1,0,2-0.9,2-2V6C16,4.9,15.1,4,14,4z M14.6,12c0,0.3-0.3,0.6-0.6,0.6H2
	c-0.3,0-0.6-0.3-0.6-0.6V6c0-0.3,0.3-0.6,0.6-0.6h1.2c0.9,0,1.7-0.4,2.4-1l0.8-0.8c0.1-0.1,0.3-0.2,0.4-0.2h2.4
	c0.1,0,0.3,0.1,0.4,0.2l0.8,0.8c0.7,0.6,1.5,1,2.4,1H14c0.3,0,0.6,0.3,0.6,0.6V12z"/>
<path d="M8,5.2c-1.9,0-3.5,1.5-3.5,3.5s1.6,3.5,3.5,3.5s3.5-1.6,3.5-3.5C11.5,6.8,9.9,5.2,8,5.2z M8,10.8c-1.2,0-2.1-0.9-2.1-2.1
	S6.8,6.6,8,6.6c1.1,0,2.1,1,2.1,2.1S9.1,10.8,8,10.8z"/>
<circle cx="2.9" cy="6.7" r="0.8"/>
</svg>
