<?xml version="1.0" encoding="utf-8"?>
<!-- Generator: Adobe Illustrator 24.3.0, SVG Export Plug-In . SVG Version: 6.00 Build 0)  -->
<svg version="1.1" id="Layer_1" xmlns="http://www.w3.org/2000/svg" xmlns:xlink="http://www.w3.org/1999/xlink" x="0px" y="0px"
	 viewBox="0 0 16 16" style="enable-background:new 0 0 16 16;" xml:space="preserve">
<path d="M4,1H2C1.4,1,1,1.5,1,2v2c0,0.6,0.5,1,1,1h2c0.5,0,1-0.5,1-1V2C5,1.4,4.5,1,4,1z M3.6,3.6H2.4V2.4h1.2V3.6z"/>
<path d="M4,6H2C1.4,6,1,6.5,1,7v2c0,0.6,0.5,1,1,1h2c0.5,0,1-0.5,1-1V7C5,6.4,4.5,6,4,6z M3.6,8.6H2.4V7.4h1.2V8.6z"/>
<path d="M9,6H7C6.4,6,6,6.5,6,7v2c0,0.6,0.5,1,1,1h2c0.5,0,1-0.5,1-1V7C10,6.4,9.5,6,9,6z M8.6,8.6H7.4V7.4h1.2V8.6z"/>
<path d="M4,11.1H2c-0.6,0-1,0.5-1,1v2c0,0.6,0.5,1,1,1h2c0.5,0,1-0.5,1-1v-2C5,11.5,4.5,11.1,4,11.1z M3.6,13.7H2.4v-1.2h1.2V13.7z"
	/>
<path d="M9,11.1H7c-0.6,0-1,0.5-1,1v2c0,0.6,0.5,1,1,1h2c0.5,0,1-0.5,1-1v-2C10,11.5,9.5,11.1,9,11.1z M8.6,13.7H7.4v-1.2h1.2V13.7z
	"/>
<path d="M14,11h-2c-0.6,0-1,0.5-1,1v2c0,0.6,0.5,1,1,1h2c0.5,0,1-0.5,1-1v-2C15,11.4,14.5,11,14,11z M13.6,13.6h-1.2v-1.2h1.2V13.6z
	"/>
<path d="M14,6h-2c-0.6,0-1,0.5-1,1v2c0,0.6,0.5,1,1,1h2c0.5,0,1-0.5,1-1V7C15,6.4,14.5,6,14,6z M13.6,8.6h-1.2V7.4h1.2V8.6z"/>
<path d="M9,1H7C6.4,1,6,1.5,6,2v2c0,0.6,0.5,1,1,1h2c0.6,0,1-0.5,1-1V2C10,1.4,9.5,1,9,1z M8.6,3.6H7.4V2.4h1.2V3.6z"/>
<path d="M14,0.9h-2c-0.6,0-1,0.5-1,1v2c0,0.6,0.5,1,1,1h2c0.6,0,1-0.5,1-1v-2C15,1.3,14.5,0.9,14,0.9z M13.6,3.5h-1.2V2.3h1.2V3.5z"
	/>
</svg>
