<?xml version="1.0" encoding="utf-8"?>
<!-- Generator: Adobe Illustrator 24.3.0, SVG Export Plug-In . SVG Version: 6.00 Build 0)  -->
<svg version="1.1" id="Layer_1" xmlns="http://www.w3.org/2000/svg" xmlns:xlink="http://www.w3.org/1999/xlink" x="0px" y="0px"
	 viewBox="0 0 16 16" style="enable-background:new 0 0 16 16;" xml:space="preserve">
<path d="M12.2,8.9c-0.5,1.1-1.2,2.1-2,3.1c-0.7,0.9-1.4,1.8-2.2,2.6c-0.8-0.8-1.5-1.7-2.2-2.6c-0.7-0.9-1.4-2-2-3.1
	C3.3,7.9,3,6.9,3,6c0-2.8,2.2-5,5-5s5,2.2,5,5C13,6.9,12.7,7.9,12.2,8.9z M8,16c0,0,6-5.7,6-10c0-3.3-2.7-6-6-6S2,2.7,2,6
	C2,10.3,8,16,8,16z"/>
<path d="M8,8.2c-1.1,0-2-0.9-2-2s0.9-2,2-2s2,0.9,2,2S9.1,8.2,8,8.2z M8,9.2c1.7,0,3-1.3,3-3s-1.3-3-3-3s-3,1.3-3,3S6.3,9.2,8,9.2z"
	/>
</svg>
