<?xml version="1.0" encoding="utf-8"?>
<!-- Generator: Adobe Illustrator 24.3.0, SVG Export Plug-In . SVG Version: 6.00 Build 0)  -->
<svg version="1.1" id="Layer_1" xmlns="http://www.w3.org/2000/svg" xmlns:xlink="http://www.w3.org/1999/xlink" x="0px" y="0px"
	 viewBox="0 0 16 16" style="enable-background:new 0 0 16 16;" xml:space="preserve">
<path d="M4,1.9v2h-2v-2H4z M5,14.1v-2c0-0.6-0.5-1-1-1h-2c-0.6,0-1,0.5-1,1v2c0,0.6,0.5,1,1,1h2C4.5,15.1,5,14.6,5,14.1z M5,9V7
	c0-0.6-0.5-1-1-1h-2c-0.6,0-1,0.5-1,1v2c0,0.6,0.5,1,1,1h2C4.5,10,5,9.6,5,9z M5,4v-2c0-0.6-0.5-1-1-1h-2c-0.6,0-1,0.5-1,1v2
	c0,0.6,0.5,1,1,1h2C4.5,5,5,4.5,5,4z M10,14.1v-2c0-0.6-0.5-1-1-1H7c-0.6,0-1,0.5-1,1v2c0,0.6,0.5,1,1,1h2C9.6,15.1,10,14.6,10,14.1
	z M10,9V7c0-0.6-0.5-1-1-1H7C6.4,6,6,6.4,6,7v2c0,0.6,0.5,1,1,1h2C9.6,10,10,9.6,10,9z M10,4v-2c0-0.6-0.5-1-1-1H7c-0.6,0-1,0.5-1,1
	v2c0,0.6,0.5,1,1,1h2C9.6,5,10,4.5,10,4z M9,1.9v2H7v-2H9z M14.1,1.9v2h-2v-2H14.1z M4,7v2h-2V7H4z M9,7v2H7V7H9z M14.1,7h-2v2h2V7z
	 M4,12v2h-2v-2H4z M9,12v2H7v-2H9z M14.1,12v2h-2v-2H14.1z M12,0.9c-0.6,0-1,0.5-1,1v2c0,0.6,0.5,1,1,1h2c0.6,0,1-0.5,1-1v-2
	c0-0.6-0.5-1-1-1H12z M11,7c0-0.6,0.5-1,1-1h2c0.6,0,1,0.5,1,1v2c0,0.6-0.5,1-1,1h-2c-0.6,0-1-0.5-1-1V7z M12,11c-0.6,0-1,0.5-1,1v2
	c0,0.6,0.5,1,1,1h2c0.6,0,1-0.5,1-1v-2c0-0.6-0.5-1-1-1H12z"/>
</svg>
