<?xml version="1.0" encoding="utf-8"?>
<!-- Generator: Adobe Illustrator 24.3.0, SVG Export Plug-In . SVG Version: 6.00 Build 0)  -->
<svg version="1.1" id="Layer_2_1_" xmlns="http://www.w3.org/2000/svg" xmlns:xlink="http://www.w3.org/1999/xlink" x="0px" y="0px"
	 viewBox="0 0 16 16" style="enable-background:new 0 0 16 16;" xml:space="preserve">
<style type="text/css">
	.st0{fill:none;stroke:#000000;stroke-width:1.3;stroke-linejoin:round;}
</style>
<g>
	<path d="M12.9,3.4H1c-0.5,0-1.1,0.4-1,1v9.4c0,0.5,0.4,1,1,1h11.9c0.6,0,1-0.4,1-1V4.3C13.9,3.8,13.5,3.4,12.9,3.4z M12.6,13.4H1.3
		V4.7h11.3V13.4z"/>
</g>
<g>
	<path d="M12.6,13.4H1.3V4.7h0.8V3.4H1c-0.5,0-1.1,0.4-1,1v9.4c0,0.5,0.4,1,1,1h11.9c0.6,0,1-0.4,1-1v-0.8h-1.3V13.4z M12.9,3.4H3.4
		v1.3h9.2v6.9h1.3V4.3C13.9,3.8,13.5,3.4,12.9,3.4z"/>
</g>
<g>
	<path d="M15,1.5H3.1c-0.5,0-1.1,0.4-1,1v0.8h1.3V2.8h11.3v8.8h-0.8v1.3H15c0.5,0,1-0.4,1-1V2.5C16,2,15.6,1.5,15,1.5z"/>
</g>
<path class="st0" d="M0.7,13.1L4,10.3l3,1.9l3.9-3.8l2.3,2.4"/>
<circle cx="4.1" cy="7.2" r="1.7"/>
</svg>
