<?xml version="1.0" encoding="utf-8"?>
<!-- Generator: Adobe Illustrator 24.3.0, SVG Export Plug-In . SVG Version: 6.00 Build 0)  -->
<svg version="1.1" id="Layer_2_1_" xmlns="http://www.w3.org/2000/svg" xmlns:xlink="http://www.w3.org/1999/xlink" x="0px" y="0px"
	 viewBox="0 0 16 16" style="enable-background:new 0 0 16 16;" xml:space="preserve">
<style type="text/css">
	.st0{fill:none;stroke:#000000;stroke-width:1.3;stroke-linejoin:round;}
</style>
<path d="M15,1.6H3.1c-0.5,0-1.1,0.4-1,1v0.8h1.3V2.9h11.3v9.2h-0.8v1.4H15c0.5,0,1-0.4,1-1V2.6C16,2.1,15.6,1.6,15,1.6z"/>
<g>
	<path d="M13.3,3.4H1c-0.5,0-1.1,0.4-1,1v9.5c0,0.5,0.4,1,1,1h12.2c0.6,0,1-0.4,1-1V4.3C14.3,3.8,13.9,3.4,13.3,3.4z M13,13.5H1.3
		V4.7H13V13.5z"/>
	<path class="st0" d="M0.7,13.2l3.4-2.8l3.1,1.9l4-3.8l2.4,2.4"/>
	<ellipse cx="4.2" cy="7.2" rx="1.7" ry="1.7"/>
</g>
</svg>
