<?xml version="1.0" encoding="utf-8"?>
<!-- Generator: Adobe Illustrator 24.3.0, SVG Export Plug-In . SVG Version: 6.00 Build 0)  -->
<svg version="1.1" id="Layer_2_1_" xmlns="http://www.w3.org/2000/svg" xmlns:xlink="http://www.w3.org/1999/xlink" x="0px" y="0px"
	 viewBox="0 0 16 16" style="enable-background:new 0 0 16 16;" xml:space="preserve">
<style type="text/css">
	.st0{fill:none;stroke:#000000;stroke-miterlimit:10;}
	.st1{fill:none;stroke:#000000;stroke-linejoin:round;}
</style>
<path class="st0" d="M13.3,12.1h1.3c0.5,0,0.9-0.4,0.9-0.9V2.6c0-0.5-0.4-0.9-0.9-0.9H3.7c-0.5,0-0.9,0.4-0.9,0.9v1.1"/>
<path class="st0" d="M1.5,3.7h10.9c0.5,0,0.9,0.4,0.9,0.9v8.6c0,0.5-0.4,0.9-0.9,0.9H1.5c-0.5,0-0.9-0.4-0.9-0.9V4.6
	C0.5,4.1,1,3.7,1.5,3.7z"/>
<path class="st1" d="M0.7,13.7L4,10.9l3,1.9L10.9,9l2.3,2.4"/>
<circle cx="4.5" cy="7.6" r="1.4"/>
</svg>
