<?xml version="1.0" encoding="utf-8"?>
<!-- Generator: Adobe Illustrator 24.3.0, SVG Export Plug-In . SVG Version: 6.00 Build 0)  -->
<svg version="1.1" id="Layer_1" xmlns="http://www.w3.org/2000/svg" xmlns:xlink="http://www.w3.org/1999/xlink" x="0px" y="0px"
	 viewBox="0 0 18 18" style="enable-background:new 0 0 18 18;" xml:space="preserve">
<path d="M7.9,5.6C7.5,5.4,7.2,5.5,7.1,5.7C7,5.8,7,5.9,7,6.1v5.6c0,0.3,0.2,0.6,0.6,0.6c0.1,0,0.2,0,0.3-0.1l3.9-2.8
	c0.2-0.2,0.3-0.6,0.1-0.8l-0.1-0.1L7.9,5.6z"/>
<path d="M15.8,2.1H2.3C1,2.1,0,3.1,0,4.4v9c0,1.2,1,2.3,2.3,2.3h13.5c1.2,0,2.3-1,2.3-2.3v-9C18,3.1,17,2.1,15.8,2.1z M16.9,13.4
	c0,0.6-0.5,1.1-1.1,1.1H2.3c-0.6,0-1.1-0.5-1.1-1.1v-9c0-0.6,0.5-1.1,1.1-1.1h13.5c0.6,0,1.1,0.5,1.1,1.1V13.4z"/>
</svg>
