<?xml version="1.0" encoding="utf-8"?>
<!-- Generator: Adobe Illustrator 24.3.0, SVG Export Plug-In . SVG Version: 6.00 Build 0)  -->
<svg version="1.1" id="Layer_2_1_" xmlns="http://www.w3.org/2000/svg" xmlns:xlink="http://www.w3.org/1999/xlink" x="0px" y="0px"
	 viewBox="0 0 16 16" style="enable-background:new 0 0 16 16;" xml:space="preserve">
<style type="text/css">
	.st0{fill:none;}
	.st1{fill:none;stroke:#000000;stroke-linecap:round;stroke-linejoin:round;}
</style>
<path class="st0" d="M1.4,2.3h13.3c0.5,0,0.9,0.4,0.9,0.8l0,0v9.4c0,0.5-0.4,0.9-0.8,0.9l0,0H1.4c-0.5,0-0.8-0.4-0.8-0.8l0,0V3.1
	C0.5,2.7,0.9,2.3,1.4,2.3L1.4,2.3z"/>
<path d="M14.6,2.8C14.8,2.8,15,3,15,3.1l0,0v9.4c0,0.2-0.2,0.4-0.3,0.4l0,0H1.4c-0.2,0-0.4-0.1-0.4-0.3l0,0V3.1
	c0-0.2,0.2-0.3,0.4-0.3H14.6 M14.6,1.8H1.4C0.6,1.8,0,2.4,0,3.1l0,0v9.4c0,0.7,0.6,1.3,1.3,1.4c0,0,0,0,0.1,0h13.3
	c0.7,0,1.3-0.6,1.4-1.3l0,0V3.1C16,2.4,15.4,1.8,14.6,1.8L14.6,1.8z"/>
<circle cx="4.3" cy="4.9" r="1.4"/>
<polyline class="st1" points="0.6,12.3 4.1,9.6 7,11.4 11.1,7.8 15.4,10 "/>
</svg>
