<?xml version="1.0" encoding="utf-8"?>
<!-- Generator: Adobe Illustrator 24.3.0, SVG Export Plug-In . SVG Version: 6.00 Build 0)  -->
<svg version="1.1" id="Layer_2_1_" xmlns="http://www.w3.org/2000/svg" xmlns:xlink="http://www.w3.org/1999/xlink" x="0px" y="0px"
	 viewBox="0 0 18 18" style="enable-background:new 0 0 18 18;" xml:space="preserve">
<style type="text/css">
	.st0{fill:none;}
	.st1{fill:none;stroke:#000000;stroke-linecap:round;stroke-linejoin:round;}
</style>
<path class="st0" d="M1.4,2.6h15.3c0.5,0,0.8,0.4,0.8,0.8l0,0v11.3c0,0.5-0.4,0.8-0.8,0.8l0,0H1.4c-0.5,0-0.8-0.4-0.8-0.8l0,0V3.5
	C0.5,3,0.9,2.6,1.4,2.6C1.4,2.6,1.4,2.6,1.4,2.6L1.4,2.6z"/>
<path d="M16.7,3.1c0.2,0,0.3,0.2,0.3,0.3l0,0v11.3c0,0.2-0.2,0.3-0.3,0.4H1.4C1.2,15,1,14.9,1,14.7l0,0V3.4c0-0.2,0.2-0.3,0.4-0.3
	L16.7,3.1 M16.7,2.1H1.4C0.6,2.1,0,2.7,0,3.4c0,0,0,0,0,0v11.3C0,15.4,0.6,16,1.4,16h15.3c0.7,0,1.3-0.6,1.3-1.3V3.4
	C18,2.7,17.4,2.1,16.7,2.1C16.7,2.1,16.7,2.1,16.7,2.1z"/>
<ellipse cx="4.9" cy="5.8" rx="1.6" ry="1.6"/>
<polyline class="st1" points="0.7,14.3 4.5,11.3 7.9,13.3 12.4,9.2 17.3,11.7 "/>
</svg>
