<?xml version="1.0" encoding="utf-8"?>
<!-- Generator: Adobe Illustrator 24.3.0, SVG Export Plug-In . SVG Version: 6.00 Build 0)  -->
<svg version="1.1" id="Layer_1" xmlns="http://www.w3.org/2000/svg" xmlns:xlink="http://www.w3.org/1999/xlink" x="0px" y="0px"
	 viewBox="0 0 16 16" style="enable-background:new 0 0 16 16;" xml:space="preserve">
<g>
	<path d="M14.6,3.2c-0.1-0.5-0.5-0.9-1-1.1c-0.7-0.2-1.7-0.5-2.8-0.8C9.8,1.1,8.6,0.8,8,0.8S6.2,1,5.2,1.3C4.3,1.6,3.4,1.9,2.4,2.1
		c-0.5,0.1-0.9,0.6-1,1.1c-0.6,4,0.8,7,2.4,9c0.7,0.9,1.5,1.6,2.4,2.2c0.3,0.2,0.6,0.4,1,0.6c0.3,0.1,0.6,0.2,0.8,0.2
		s0.5-0.1,0.8-0.2c0.3-0.2,0.7-0.4,1-0.6c0.9-0.6,1.7-1.3,2.4-2.2C13.8,10.2,15.2,7.2,14.6,3.2z M11.4,11.6c-0.6,0.8-1.3,1.4-2.2,2
		c-0.1,0.1-0.3,0.2-0.5,0.3c-0.1,0.1-0.3,0.2-0.4,0.3c-0.1,0-0.3,0.1-0.4,0.1c-0.1,0-0.3-0.1-0.4-0.1c-0.3-0.2-0.6-0.3-0.8-0.5
		c-0.9-0.6-1.6-1.2-2.2-2C3.3,9.9,1.8,7.2,2.4,3.4c0-0.1,0.1-0.3,0.2-0.3c1.1-0.2,2-0.5,2.9-0.8C6.4,2,7.5,1.8,8,1.8
		c0.3,0,1.2,0.2,1.8,0.3c0.3,0.1,0.5,0.1,0.8,0.2c0.7,0.2,1.4,0.4,2,0.6L13.3,3c0.2,0.1,0.3,0.2,0.3,0.4
		C14.2,7.2,12.7,9.9,11.4,11.6z"/>
	<path d="M9.4,6.6c0,0.6-0.4,1.1-1,1.2l0.4,1.8c0.1,0.3-0.1,0.5-0.4,0.5H8.3H7.6c-0.3,0-0.5-0.2-0.5-0.5l0,0l0.4-1.8
		C6.8,7.7,6.4,6.9,6.6,6.2s1.1-1.1,1.9-0.8C9.1,5.6,9.4,6.1,9.4,6.6z"/>
</g>
</svg>
