<?xml version="1.0" encoding="utf-8"?>
<!-- Generator: Adobe Illustrator 24.3.0, SVG Export Plug-In . SVG Version: 6.00 Build 0)  -->
<svg version="1.1" id="Layer_1" xmlns="http://www.w3.org/2000/svg" xmlns:xlink="http://www.w3.org/1999/xlink" x="0px" y="0px"
	 viewBox="0 0 16 16" style="enable-background:new 0 0 16 16;" xml:space="preserve">
<path d="M7,5.1C6.7,4.9,6.4,5,6.3,5.2C6.2,5.3,6.2,5.4,6.2,5.5v5c0,0.3,0.2,0.5,0.5,0.5c0.1,0,0.2,0,0.3-0.1l3.5-2.5
	c0.2-0.2,0.3-0.5,0.1-0.7l-0.1-0.1L7,5.1z"/>
<path d="M14,2H2C0.9,2,0,2.9,0,4v8c0,1.1,0.9,2,2,2h12c1.1,0,2-0.9,2-2V4C16,2.9,15.1,2,14,2z M15,12c0,0.5-0.5,1-1,1H2
	c-0.5,0-1-0.5-1-1V4c0-0.5,0.5-1,1-1h12c0.5,0,1,0.5,1,1V12z"/>
</svg>
