<?xml version="1.0" encoding="utf-8"?>
<!-- Generator: Adobe Illustrator 24.3.0, SVG Export Plug-In . SVG Version: 6.00 Build 0)  -->
<svg version="1.1" id="Layer_2_1_" xmlns="http://www.w3.org/2000/svg" xmlns:xlink="http://www.w3.org/1999/xlink" x="0px" y="0px"
	 viewBox="0 0 18 18" style="enable-background:new 0 0 18 18;" xml:space="preserve">
<style type="text/css">
	.st0{fill:none;stroke:#000000;stroke-width:1.2;stroke-miterlimit:10;}
	.st1{fill:none;stroke:#000000;stroke-width:1.2;stroke-linejoin:round;}
</style>
<path class="st0" d="M14.9,13.8h1.5c0.5,0,0.9-0.4,0.9-0.9v-10C17.4,2.4,17,2,16.5,2H4C3.5,2,3.1,2.4,3.1,2.9v1.3"/>
<path class="st0" d="M1.5,4.2H14c0.5,0,0.9,0.4,0.9,0.9v10c0,0.5-0.4,0.9-0.9,0.9H1.5c-0.5,0-0.9-0.4-0.9-0.9v-10
	C0.6,4.6,1,4.2,1.5,4.2z"/>
<path class="st1" d="M0.8,15.6l3.6-3.2l3.4,2.1l4.4-4.3l2.6,2.7"/>
<ellipse cx="5.1" cy="8.7" rx="1.7" ry="1.7"/>
</svg>
