<?xml version="1.0" encoding="utf-8"?>
<!-- Generator: Adobe Illustrator 24.3.0, SVG Export Plug-In . SVG Version: 6.00 Build 0)  -->
<svg version="1.1" id="Layer_1" xmlns="http://www.w3.org/2000/svg" xmlns:xlink="http://www.w3.org/1999/xlink" x="0px" y="0px"
	 viewBox="0 0 16 16" style="enable-background:new 0 0 16 16;" xml:space="preserve">
<path d="M6.9,10.9c-0.3,0-0.6-0.3-0.6-0.6V5.7c0-0.1,0-0.3,0.2-0.4C6.6,5.1,6.7,5,6.9,5s0.3,0.1,0.4,0.2l3.1,2.3l0.1,0.1
	c0.1,0.1,0.2,0.3,0.2,0.4c0,0.2-0.1,0.3-0.3,0.5l-3.2,2.3C7.2,10.9,7,10.9,6.9,10.9z"/>
<path d="M14,2H2C0.9,2,0,2.9,0,4v8c0,1.1,0.9,2,2,2h12c1.1,0,2-0.9,2-2V4C16,2.9,15.1,2,14,2z M14.7,12c0,0.4-0.3,0.7-0.7,0.7H2
	c-0.4,0-0.7-0.3-0.7-0.7V4c0-0.4,0.3-0.7,0.7-0.7h12c0.4,0,0.7,0.3,0.7,0.7V12z"/>
</svg>
