<?xml version="1.0" encoding="utf-8"?>
<!-- Generator: Adobe Illustrator 24.3.0, SVG Export Plug-In . SVG Version: 6.00 Build 0)  -->
<svg version="1.1" id="Layer_1" xmlns="http://www.w3.org/2000/svg" xmlns:xlink="http://www.w3.org/1999/xlink" x="0px" y="0px"
	 viewBox="0 0 16 16" style="enable-background:new 0 0 16 16;" xml:space="preserve">
<style type="text/css">
	.st0{fill-rule:evenodd;clip-rule:evenodd;}
</style>
<path d="M6,8c1.7,0,3-1.3,3-3S7.7,2,6,2S3,3.3,3,5S4.3,8,6,8z M8,5c0,1.1-0.9,2-2,2S4,6.1,4,5s0.9-2,2-2S8,3.9,8,5z M12,13
	c0,1-1,1-1,1H1c0,0-1,0-1-1s1-4,6-4S12,12,12,13z M11,13c0-0.2-0.2-1-0.8-1.7C9.5,10.7,8.3,10,6,10c-2.3,0-3.5,0.7-4.2,1.3
	C1.2,12,1,12.8,1,13H11z"/>
<path class="st0" d="M15.9,4.8C16,5,16,5.3,15.9,5.5c0,0,0,0,0,0l-3,3c-0.2,0.2-0.5,0.2-0.7,0c0,0,0,0,0,0L10.6,7
	c-0.2-0.2-0.2-0.5,0-0.7s0.5-0.2,0.7,0l1.1,1.1l2.6-2.6C15.3,4.6,15.7,4.6,15.9,4.8C15.9,4.8,15.9,4.8,15.9,4.8z"/>
</svg>
