<?xml version="1.0" encoding="utf-8"?>
<!-- Generator: Adobe Illustrator 24.3.0, SVG Export Plug-In . SVG Version: 6.00 Build 0)  -->
<svg version="1.1" id="Layer_1" xmlns="http://www.w3.org/2000/svg" xmlns:xlink="http://www.w3.org/1999/xlink" x="0px" y="0px"
	 viewBox="0 0 16 16" style="enable-background:new 0 0 16 16;" xml:space="preserve">
<style type="text/css">
	.st0{fill-rule:evenodd;clip-rule:evenodd;}
</style>
<path d="M10.4,12.9c-0.4,0-0.7-0.3-0.7-0.7v-6c0-0.4,0.3-0.7,0.7-0.7s0.7,0.3,0.7,0.7v6C11.1,12.6,10.8,12.9,10.4,12.9z M8,12.9
	c-0.4,0-0.7-0.3-0.7-0.7v-6c0-0.4,0.3-0.7,0.7-0.7s0.7,0.3,0.7,0.7v6C8.7,12.6,8.4,12.9,8,12.9z M5.6,12.9c-0.4,0-0.7-0.3-0.7-0.7
	v-6c0-0.4,0.3-0.7,0.7-0.7c0.4,0,0.7,0.3,0.7,0.7v6C6.3,12.6,6,12.9,5.6,12.9z"/>
<path class="st0" d="M13.5,1.5H10c0-0.6-0.4-1-1-1H7c-0.6,0-1,0.4-1,1H2.5c-0.6,0-1,0.4-1,1v1c0,0.6,0.4,1,1,1H3v9c0,1.1,0.9,2,2,2
	h6c1.1,0,2-0.9,2-2v-9h0.5c0.6,0,1-0.4,1-1v-1C14.5,1.9,14.1,1.5,13.5,1.5z M13.1,3.1h-1.5v10.4c0,0.3-0.3,0.6-0.6,0.6H5
	c-0.3,0-0.6-0.3-0.6-0.6V3.1H2.9V2.9h4.5v-1h1.2v1h4.5V3.1z"/>
</svg>
