<?xml version="1.0" encoding="utf-8"?>
<!-- Generator: Adobe Illustrator 24.3.0, SVG Export Plug-In . SVG Version: 6.00 Build 0)  -->
<svg version="1.1" id="Layer_1" xmlns="http://www.w3.org/2000/svg" xmlns:xlink="http://www.w3.org/1999/xlink" x="0px" y="0px"
	 viewBox="0 0 16 16" style="enable-background:new 0 0 16 16;" xml:space="preserve">
<path d="M8,4.9c-1.8,0-3.2,1.4-3.2,3.2s1.5,3.2,3.2,3.2s3.2-1.5,3.2-3.2S9.8,4.9,8,4.9z M8,9.9c-1,0-1.8-0.8-1.8-1.8
	c0-1,0.8-1.8,1.8-1.8c1,0,1.8,0.8,1.8,1.8C9.8,9,9,9.9,8,9.9z"/>
<path d="M14.6,6.2l-0.3-0.1c-0.4,0-0.7-0.5-0.6-1c0-0.1,0-0.1,0.1-0.2L14,4.7c0.9-1.6-0.9-3.4-2.5-2.5l-0.3,0.2
	c-0.4,0.2-1,0.1-1.2-0.3C10,2,10,2,10,1.9c0-0.1-0.1-0.5-0.1-0.5c-0.5-1.8-3.1-1.8-3.6,0L6.1,1.8C6,2.2,5.5,2.5,5,2.4
	C5,2.4,5,2.4,4.8,2.3L4.6,2.1C3,1.2,1.1,3,2,4.7L2.3,5C2.5,5.4,2.3,6,2,6.2c-0.1,0-0.1,0.1-0.2,0.1H1.3c-1.8,0.5-1.8,3.1,0,3.6
	L1.6,10c0.5,0.1,0.8,0.6,0.7,1.1c0,0.1,0,0.1-0.1,0.2L2,11.5C1.1,13.1,3,14.9,4.5,14l0.3-0.2c0.4-0.2,1-0.1,1.2,0.3
	c0,0.1,0.1,0.1,0.1,0.2l0.1,0.3c0.5,1.8,3.1,1.8,3.6,0l0.1-0.3c0.1-0.5,0.6-0.7,1.1-0.6c0.1,0,0.1,0,0.2,0.1l0.3,0.2
	c1.6,0.9,3.4-0.9,2.5-2.5l-0.2-0.3c-0.2-0.4-0.1-1,0.3-1.2c0.1,0,0.1-0.1,0.2-0.1l0.3-0.1C16.5,9.3,16.5,6.7,14.6,6.2z M14.3,8.4
	L14,8.5c-0.2,0-0.3,0.1-0.5,0.2C13,9,12.6,9.4,12.5,10c-0.2,0.6-0.1,1.3,0.1,1.8l0,0.1l0.2,0.3c0,0.1,0.1,0.2,0,0.4
	c-0.1,0.2-0.3,0.3-0.4,0.3c0,0-0.1,0-0.2,0l-0.1-0.1c-0.2-0.2-0.5-0.4-0.9-0.4c-0.1,0-0.3,0-0.4,0c-1.1,0-2,0.7-2.2,1.7l-0.1,0.2
	c-0.1,0.3-0.3,0.4-0.5,0.4s-0.4-0.1-0.5-0.3L7.5,14c0-0.2-0.1-0.3-0.2-0.5c-0.4-0.7-1.1-1.1-2-1.1c-0.4,0-0.8,0.1-1.1,0.3l-0.1,0
	l-0.3,0.2c-0.1,0-0.1,0-0.2,0c-0.1,0-0.3-0.1-0.4-0.3c-0.1-0.1-0.1-0.2,0-0.3l0,0c0.2-0.2,0.5-0.5,0.5-1c0.1-0.6,0-1.1-0.3-1.6
	C3.1,9.1,2.6,8.8,2,8.6L1.8,8.6C1.5,8.5,1.4,8.3,1.4,8.1c0-0.1,0-0.3,0.2-0.4h0.2c0.2,0,0.5,0,0.8-0.3c1-0.5,1.5-1.9,0.9-3.1l0-0.1
	L3.3,4c-0.1-0.2-0.1-0.3,0-0.5c0.1-0.2,0.3-0.3,0.4-0.3c0,0,0.1,0,0.1,0l0,0c0.2,0.2,0.5,0.5,1,0.5c0.1,0,0.2,0,0.4,0
	c1.1,0,2-0.7,2.3-1.7l0.1-0.4C7.7,1.5,7.9,1.4,8,1.4s0.4,0.1,0.5,0.3c0,0,0,0.1,0,0.2c0,0.2,0.1,0.5,0.3,0.7c0.4,0.7,1.1,1.2,2,1.2
	c0.4,0,0.7-0.1,1.1-0.3l0.1,0l0.3-0.2c0.1,0,0.1,0,0.2,0c0.1,0,0.3,0.1,0.4,0.3c0.1,0.1,0.1,0.2,0,0.3l0,0c-0.2,0.2-0.5,0.5-0.5,1
	c-0.1,0.7,0.1,1.3,0.5,1.8c0.3,0.4,0.8,0.6,1.2,0.7l0.2,0c0.3,0.1,0.4,0.3,0.4,0.5C14.6,8.2,14.5,8.4,14.3,8.4z"/>
</svg>
