<?xml version="1.0" encoding="utf-8"?>
<!-- Generator: Adobe Illustrator 24.3.0, SVG Export Plug-In . SVG Version: 6.00 Build 0)  -->
<svg version="1.1" id="Layer_1" xmlns="http://www.w3.org/2000/svg" xmlns:xlink="http://www.w3.org/1999/xlink" x="0px" y="0px"
	 viewBox="0 0 16 16" style="enable-background:new 0 0 16 16;" xml:space="preserve">
<path d="M15.7,14L12,10.2c0.9-1.4,1.3-3,1-4.7c-0.3-1.7-1.2-3.3-2.6-4.3C9.3,0.4,8,0,6.5,0C4.5,0,2.5,1,1.3,2.7
	c-2.1,2.9-1.5,7.1,1.4,9.2c1.1,0.8,2.5,1.3,3.9,1.3c1.3,0,2.6-0.4,3.8-1.2l3.7,3.7c0.2,0.2,0.5,0.4,0.8,0.4c0.3,0,0.6-0.1,0.8-0.4
	c0.2-0.2,0.3-0.5,0.3-0.8C16,14.5,15.9,14.2,15.7,14z M10.8,9.5l-0.5,0.8l-0.8,0.6c-0.9,0.6-1.9,0.9-2.9,0.9c-1.1,0-2.2-0.3-3-1
	c-1.1-0.8-1.8-2-2-3.4C1.3,6,1.6,4.6,2.4,3.5c0.9-1.3,2.5-2.1,4.1-2.1c1.1,0,2.2,0.3,3.1,1c1.1,0.8,1.8,2,2,3.4
	C11.8,7.1,11.6,8.4,10.8,9.5z"/>
</svg>
