<?xml version="1.0" encoding="utf-8"?>
<!-- Generator: Adobe Illustrator 24.3.0, SVG Export Plug-In . SVG Version: 6.00 Build 0)  -->
<svg version="1.1" id="Layer_1" xmlns="http://www.w3.org/2000/svg" xmlns:xlink="http://www.w3.org/1999/xlink" x="0px" y="0px"
	 viewBox="0 0 16 16" style="enable-background:new 0 0 16 16;" xml:space="preserve">
<path d="M9.5,12.9c0,0.8-0.7,1.5-1.5,1.5s-1.5-0.7-1.5-1.5s0.7-1.5,1.5-1.5S9.5,12.1,9.5,12.9z M9.5,7.9c0,0.8-0.7,1.5-1.5,1.5
	S6.5,8.7,6.5,7.9S7.2,6.4,8,6.4S9.5,7.1,9.5,7.9z M9.5,2.9c0,0.8-0.7,1.5-1.5,1.5S6.5,3.7,6.5,2.9S7.2,1.4,8,1.4S9.5,2.1,9.5,2.9z"
	/>
</svg>
